<?xml version="1.0" encoding="UTF-8"?>
<svg id="Layer_1" xmlns="http://www.w3.org/2000/svg" version="1.1" viewBox="0 0 107.3 78.8">
  <!-- Generator: Adobe Illustrator 30.2.1, SVG Export Plug-In . SVG Version: 2.1.1 Build 1)  -->
  <defs>
    <style>
      .st0 {
        fill: none;
        stroke: #231f20;
        stroke-miterlimit: 10;
        stroke-width: .1px;
      }
    </style>
  </defs>
  <line class="st0" y1="42.4" y2="77.8"/>
  <line class="st0" x1="106" y2="42.4"/>
  <line class="st0" x1="50.1" y1="45.3" x2="14.7" y2="59.4"/>
  <line class="st0" x1="50.1" y1="29.6" x2="50.1" y2="45.3"/>
  <line class="st0" x1="58.2" y1="42" x2="93.7" y2="27.8"/>
  <line class="st0" x1="93.7" y1="27.8" x2="93.7" y2="12.1"/>
  <line class="st0" x1="107.3" y1="36.4" x2="107.3" y2="1"/>
  <polyline class="st0" points="1.4 78.8 1.4 77.3 1.4 43.4"/>
  <line class="st0" x1="107.3" y1="36.4" x2="1.4" y2="78.8"/>
  <polyline class="st0" points="107.3 1 106 1.5 1.4 43.4"/>
  <line class="st0" x1="50.1" y1="29.6" x2="14.7" y2="43.7"/>
  <line class="st0" x1="50.1" y1="29.6" x2="51.5" y2="29"/>
  <line class="st0" x1="14.7" y1="43.7" x2="14.7" y2="59.4"/>
  <line class="st0" x1="14.7" y1="61" x2="14.7" y2="59.4"/>
  <line class="st0" x1="51.5" y1="46.3" x2="51.5" y2="29"/>
  <line class="st0" x1="51.5" y1="46.3" x2="14.7" y2="61"/>
  <line class="st0" x1="58.2" y1="26.2" x2="93.7" y2="12.1"/>
  <line class="st0" x1="58.2" y1="43.5" x2="58.2" y2="42"/>
  <line class="st0" x1="95.1" y1="11.6" x2="93.7" y2="12.1"/>
  <line class="st0" x1="58.2" y1="42" x2="58.2" y2="26.2"/>
  <line class="st0" x1="95.1" y1="28.8" x2="95.1" y2="11.6"/>
  <line class="st0" x1="58.2" y1="43.5" x2="95.1" y2="28.8"/>
  <line class="st0" y1="42.4" x2="1.4" y2="43.4"/>
  <line class="st0" y1="77.8" x2="1.4" y2="78.8"/>
  <line class="st0" x1="106" x2="107.3" y2="1"/>
  <line class="st0" x1="95.1" y1="28.8" x2="93.7" y2="27.8"/>
  <line class="st0" x1="51.5" y1="46.3" x2="50.1" y2="45.3"/>
</svg>