<?xml version="1.0" encoding="UTF-8"?>
<svg id="Layer_1" xmlns="http://www.w3.org/2000/svg" version="1.1" viewBox="0 0 81.8 50.5">
  <!-- Generator: Adobe Illustrator 30.2.1, SVG Export Plug-In . SVG Version: 2.1.1 Build 1)  -->
  <defs>
    <style>
      .st0 {
        fill: none;
        stroke: #231f20;
        stroke-miterlimit: 10;
        stroke-width: .1px;
      }
    </style>
  </defs>
  <line class="st0" x1="43.6" y1="14.7" x2="43.6" y2="32"/>
  <line class="st0" x1="80.4" x2="43.6" y2="14.7"/>
  <line class="st0" x1="81.8" y1="1" x2="80.4" y2="1.5"/>
  <line class="st0" x1="44.9" y1="33" x2="44.9" y2="31.4"/>
  <polyline class="st0" points="44.9 33 81.8 18.3 81.8 1"/>
  <line class="st0" x1="44.9" y1="31.4" x2="44.9" y2="15.7"/>
  <line class="st0" x1="44.9" y1="15.7" x2="80.4" y2="1.5"/>
  <line class="st0" x1="81.8" y1="1" x2="80.4"/>
  <line class="st0" x1="43.6" y1="14.7" x2="44.9" y2="15.7"/>
  <line class="st0" x1="44.9" y1="33" x2="43.6" y2="32"/>
  <line class="st0" y1="32.2" y2="49.4"/>
  <line class="st0" x1="36.8" y1="17.5" y2="32.2"/>
  <line class="st0" x1="1.4" y1="50.5" x2="1.4" y2="48.9"/>
  <line class="st0" x1="36.8" y1="19" x2="38.2" y2="18.5"/>
  <polyline class="st0" points="38.2 18.5 38.2 35.8 1.4 50.5"/>
  <line class="st0" x1="36.8" y1="19" x2="1.4" y2="33.2"/>
  <line class="st0" x1="1.4" y1="33.2" x2="1.4" y2="48.9"/>
  <line class="st0" x1="36.8" y1="17.5" x2="38.2" y2="18.5"/>
  <line class="st0" y1="32.2" x2="1.4" y2="33.2"/>
  <line class="st0" y1="49.4" x2="1.4" y2="50.5"/>
</svg>