<?xml version="1.0" encoding="UTF-8"?>
<svg id="Layer_1" xmlns="http://www.w3.org/2000/svg" version="1.1" viewBox="0 0 81.8 50.5">
  <!-- Generator: Adobe Illustrator 30.2.1, SVG Export Plug-In . SVG Version: 2.1.1 Build 1)  -->
  <defs>
    <style>
      .st0 {
        fill: #fff;
      }

      .st0, .st1 {
        stroke: #231f20;
        stroke-miterlimit: 10;
        stroke-width: .1px;
      }

      .st1 {
        fill: none;
      }
    </style>
  </defs>
  <polygon class="st0" points="38.2 18.5 38.2 35.8 1.4 50.5 0 49.4 0 32.2 36.8 17.5 38.2 18.5"/>
  <polygon class="st0" points="81.8 1 81.8 18.3 44.9 33 43.6 32 43.6 14.7 80.4 0 81.8 1"/>
  <line class="st1" x1="44.9" y1="33" x2="44.9" y2="31.4"/>
  <line class="st1" x1="44.9" y1="31.4" x2="44.9" y2="15.7"/>
  <polyline class="st1" points="44.9 15.7 80.4 1.5 81.8 1"/>
  <line class="st1" x1="43.6" y1="14.7" x2="44.9" y2="15.7"/>
  <line class="st1" x1="1.4" y1="50.5" x2="1.4" y2="48.9"/>
  <polyline class="st1" points="1.4 33.2 36.8 19 38.2 18.5"/>
  <line class="st1" x1="1.4" y1="33.2" x2="1.4" y2="48.9"/>
  <line class="st1" y1="32.2" x2="1.4" y2="33.2"/>
</svg>