<?xml version="1.0" encoding="UTF-8"?>
<svg id="Layer_1" xmlns="http://www.w3.org/2000/svg" version="1.1" viewBox="0 0 107.3 78.8">
  <!-- Generator: Adobe Illustrator 30.2.1, SVG Export Plug-In . SVG Version: 2.1.1 Build 1)  -->
  <defs>
    <style>
      .st0 {
        stroke: #211e1f;
      }

      .st0, .st1 {
        fill: none;
        stroke-miterlimit: 10;
        stroke-width: .1px;
      }

      .st1 {
        stroke: #000;
      }

      .st2 {
        fill: #fff;
      }
    </style>
  </defs>
  <line class="st1" x1="-118.8" y1="87.7" x2="-118.8" y2="52.3"/>
  <line class="st1" x1="-120.1" y1="51.3" x2="-118.8" y2="52.3"/>
  <path class="st2" d="M106,0L0,42.4v35.4l1.4,1,106-42.4V1l-1.4-1ZM93.7,27.8l-35.5,14.1v-15.7l35.5-14.2v15.7h0ZM50.1,45.3l-35.5,14.2v-15.7l35.5-14.1v15.7h0Z"/>
  <polygon class="st0" points="107.3 1 107.3 36.4 1.3 78.8 0 77.8 0 42.4 106 0 107.3 1"/>
  <line class="st0" x1="50.1" y1="45.3" x2="14.7" y2="59.4"/>
  <line class="st0" x1="50.1" y1="45.3" x2="50.1" y2="29.6"/>
  <line class="st0" x1="1.3" y1="78.8" x2="1.3" y2="43.4"/>
  <line class="st0" x1="107.3" y1="1" x2="1.3" y2="43.4"/>
  <polygon class="st0" points="51.5 29 14.7 43.7 14.7 61 51.5 46.3 51.5 29"/>
  <line class="st0" y1="42.4" x2="1.3" y2="43.4"/>
  <line class="st0" x1="51.5" y1="46.3" x2="50.1" y2="45.3"/>
  <g>
    <line class="st0" x1="93.7" y1="27.8" x2="58.2" y2="42"/>
    <line class="st0" x1="93.7" y1="27.8" x2="93.7" y2="12.1"/>
    <polygon class="st0" points="95.1 11.6 58.2 26.2 58.2 43.5 95.1 28.8 95.1 11.6"/>
    <line class="st0" x1="95.1" y1="28.8" x2="93.7" y2="27.8"/>
  </g>
</svg>