<?xml version="1.0" encoding="UTF-8"?>
<svg id="Layer_1" xmlns="http://www.w3.org/2000/svg" viewBox="0 0 144 55.4">
    <polygon points="0 40.9 0 55 10.1 55 10.1 52.5 3 52.5 3 40.9 0 40.9" style="fill:#ffffff;" />
    <path
        d="M12.1,40.9h3v8.6c0,1,.1,1.7.3,2.1.4.8,1.1,1.2,2.3,1.2s2-.4,2.3-1.2c.2-.4.3-1.2.3-2.1v-8.6h3v8.7c0,1.5-.2,2.7-.7,3.5-.9,1.5-2.5,2.3-5,2.3s-4.1-.8-5-2.3c-.5-.8-.7-2-.7-3.5v-8.7Z"
        style="fill:#ffffff;" />
    <polygon
        points="34 40.9 31.4 45.5 28.8 40.9 25.3 40.9 29.6 47.8 25.1 55 28.5 55 31.4 50.2 34.1 55 37.7 55 33.1 47.7 37.4 40.9 34 40.9"
        style="fill:#ffffff;" />
    <polygon
        points="53.2 40.9 51.3 49.1 50.8 51.2 50.4 49 48.7 40.9 45.6 40.9 44 49 43.6 51.2 43.2 49 41.3 40.9 38.2 40.9 42.2 55 44.9 55 46.7 46.8 47.2 44 47.7 46.8 49.4 55 52.2 55 56.2 40.9 53.2 40.9"
        style="fill:#ffffff;" />
    <path
        d="M67,51.6c.7-.9,1-2.1,1-3.7s-.3-2.8-1-3.7-1.6-1.3-2.8-1.3-2.1.4-2.8,1.3c-.7.9-1,2.1-1,3.7s.3,2.8,1,3.7c.7.9,1.6,1.3,2.8,1.3s2.1-.4,2.8-1.3M68.9,53.7c-1.1,1.1-2.6,1.6-4.6,1.6s-3.6-.5-4.6-1.6c-1.4-1.3-2.2-3.3-2.2-5.8s.7-4.5,2.2-5.8c1.1-1.1,2.6-1.6,4.6-1.6s3.6.5,4.6,1.6c1.4,1.3,2.1,3.2,2.1,5.8s-.7,4.5-2.1,5.8"
        style="fill:#ffffff;" />
    <path
        d="M82.3,51.6c.7-.9,1-2.1,1-3.7s-.3-2.8-1-3.7c-.7-.9-1.6-1.3-2.8-1.3s-2.1.4-2.8,1.3c-.7.9-1,2.1-1,3.7s.3,2.8,1,3.7c.7.9,1.6,1.3,2.8,1.3s2.1-.4,2.8-1.3M84.2,53.7c-1.1,1.1-2.6,1.6-4.6,1.6s-3.6-.5-4.6-1.6c-1.4-1.3-2.2-3.3-2.2-5.8s.7-4.5,2.2-5.8c1.1-1.1,2.6-1.6,4.6-1.6s3.6.5,4.6,1.6c1.4,1.3,2.1,3.2,2.1,5.8s-.7,4.5-2.1,5.8"
        style="fill:#ffffff;" />
    <path
        d="M91.5,43.4v9.2h2.7c1.4,0,2.4-.7,2.9-2.1.3-.8.5-1.6.5-2.7s-.2-2.5-.7-3.3c-.5-.8-1.4-1.2-2.7-1.2h-2.7ZM96.9,41.2c1,.3,1.8.9,2.4,1.8.5.7.8,1.5,1,2.3.2.8.3,1.6.3,2.3,0,1.9-.4,3.5-1.1,4.8-1,1.8-2.6,2.6-4.8,2.6h-6.1v-14.1h6.1c.9,0,1.6.1,2.2.3"
        style="fill:#ffffff;" />
    <polygon points="125.4 0 106 19.3 106 47.5 112.7 47.5 112.7 22 130.1 4.7 125.4 0"
        style="fill:#ffffff;" />
    <rect x="106" y="48.7" width="30.2" height="6.7" style="fill:#ffffff;" />
    <polygon points="125.8 10.6 137.3 22 137.3 55.3 144 55.3 144 19.3 130.5 5.9 125.8 10.6"
        style="fill:#ffffff;" />
    <rect x="121.1" y="18.4" width="3.3" height="3.3" style="fill:#ffffff;" />
    <rect x="125.6" y="18.4" width="3.3" height="3.3" style="fill:#ffffff;" />
    <rect x="121.1" y="22.7" width="3.3" height="3.3" style="fill:#ffffff;" />
    <rect x="125.6" y="22.7" width="3.3" height="3.3" style="fill:#ffffff;" />
    <path
        d="M9.5,19.3h6.3c4.2,0,6.6-2.1,6.6-6s-2.4-5.8-6.6-5.8h-6.3v11.8ZM16.3,0C25.9,0,31.4,4.7,31.4,13s-5.5,13.8-15.1,13.8h-6.8v10.5H0V0h16.3Z"
        style="fill:#ffffff;" />
    <polygon
        points="58.3 0 58.3 15.3 42.8 15.3 42.8 0 33.3 0 33.3 37.2 42.8 37.2 42.8 22.7 58.3 22.7 58.3 37.2 67.8 37.2 67.8 0 58.3 0"
        style="fill:#ffffff;" />
    <polygon
        points="72.7 0 72.7 37.2 102.6 37.2 102.6 29.7 82.3 29.7 82.3 22.3 100.1 22.3 100.1 14.8 82.3 14.8 82.3 7.4 102 7.4 102 0 72.7 0"
        style="fill:#ffffff;" />
    <path
        d="M101.7,41.7h.6c.1,0,.2,0,.3,0,0,0,.1,0,.2-.1,0,0,0-.1,0-.2,0,0,0-.2-.1-.2,0,0-.2,0-.3,0h-.7v.7ZM101.5,42.8v-2.1h.9c.2,0,.3,0,.4,0,0,0,.2.1.2.2,0,0,0,.2,0,.3s0,.3-.1.4c0,.1-.2.2-.4.2,0,0,.1,0,.2.1,0,0,.2.2.2.3l.4.6h-.3l-.3-.4c0-.1-.1-.2-.2-.3,0,0,0-.1-.1-.1,0,0,0,0-.1,0,0,0,0,0-.2,0h-.3v.9h-.3Z"
        style="fill:#231f20;" />
    <path d="M103.9,41.8c0,.9-.7,1.6-1.6,1.6s-1.6-.7-1.6-1.6.7-1.6,1.6-1.6,1.6.7,1.6,1.6Z"
        style="fill:none; stroke:#231f20; stroke-miterlimit:10; stroke-width:.3px;" />
</svg>